<mxfile host="app.diagrams.net" agent="Mozilla/5.0 (Windows NT 10.0; Win64; x64) AppleWebKit/537.36 (KHTML, like Gecko) Chrome/137.0.0.0 Safari/537.36" version="27.1.6">
  <diagram name="Simulation Loop" id="sim-loop">
    <mxGraphModel dx="1042" dy="527" grid="1" gridSize="10" guides="1" tooltips="1" connect="1" arrows="1" fold="1" page="1" pageScale="1" pageWidth="827" pageHeight="1169" math="0" shadow="0">
      <root>
        <mxCell id="0" />
        <mxCell id="1" parent="0" />
        <mxCell id="2" value="Початок кроку t" style="ellipse;whiteSpace=wrap;html=1;strokeColor=#000000;fillColor=#FFFFFF;" parent="1" vertex="1">
          <mxGeometry x="100" y="120" width="120" height="50" as="geometry" />
        </mxCell>
        <mxCell id="3" value="Вимірювання: raw signal" style="rounded=0;whiteSpace=wrap;html=1;strokeColor=#000000;fillColor=#DAE8FC;" parent="1" vertex="1">
          <mxGeometry x="70" y="220" width="180" height="60" as="geometry" />
        </mxCell>
        <mxCell id="4" value="Очищення: AnomalyDetector + MA" style="rounded=0;whiteSpace=wrap;html=1;strokeColor=#000000;fillColor=#FFF2CC;" parent="1" vertex="1">
          <mxGeometry x="530" y="220" width="180" height="60" as="geometry" />
        </mxCell>
        <mxCell id="5" value="EKF.predict()" style="rounded=0;whiteSpace=wrap;html=1;strokeColor=#000000;fillColor=#E1D5E7;" parent="1" vertex="1">
          <mxGeometry x="530" y="330" width="180" height="60" as="geometry" />
        </mxCell>
        <mxCell id="6" value="MPC.optimize()" style="rounded=0;whiteSpace=wrap;html=1;strokeColor=#000000;fillColor=#D5E8D4;" parent="1" vertex="1">
          <mxGeometry x="530" y="450" width="180" height="60" as="geometry" />
        </mxCell>
        <mxCell id="7" value="Застосування керування uₜ" style="rounded=0;whiteSpace=wrap;html=1;strokeColor=#000000;fillColor=#F8CECC;" parent="1" vertex="1">
          <mxGeometry x="530" y="570" width="180" height="60" as="geometry" />
        </mxCell>
        <mxCell id="8" value="true_gen.step() → yₜ₊₁" style="rounded=0;whiteSpace=wrap;html=1;strokeColor=#000000;fillColor=#FFF2CC;" parent="1" vertex="1">
          <mxGeometry x="530" y="690" width="180" height="60" as="geometry" />
        </mxCell>
        <mxCell id="9" value="EKF.update()" style="rounded=0;whiteSpace=wrap;html=1;strokeColor=#000000;fillColor=#E1D5E7;" parent="1" vertex="1">
          <mxGeometry x="530" y="810" width="180" height="60" as="geometry" />
        </mxCell>
        <mxCell id="10" value="Чи innovation &gt; threshold?" style="rhombus;whiteSpace=wrap;html=1;strokeColor=#000000;fillColor=#FFF2CC;" parent="1" vertex="1">
          <mxGeometry x="310" y="800" width="160" height="80" as="geometry" />
        </mxCell>
        <mxCell id="11" value="MPC.fit() (retrain)" style="rounded=0;whiteSpace=wrap;html=1;strokeColor=#000000;fillColor=#D5E8D4;" parent="1" vertex="1">
          <mxGeometry x="310" y="960" width="160" height="60" as="geometry" />
        </mxCell>
        <mxCell id="12" value="Кінець кроку t" style="ellipse;whiteSpace=wrap;html=1;strokeColor=#000000;fillColor=#FFFFFF;" parent="1" vertex="1">
          <mxGeometry x="70" y="965" width="180" height="50" as="geometry" />
        </mxCell>
        <mxCell id="e1" style="edgeStyle=orthogonalEdgeStyle;rounded=0;orthogonalLoop=1;html=1;" parent="1" source="2" target="3" edge="1">
          <mxGeometry relative="1" as="geometry" />
        </mxCell>
        <mxCell id="e2" style="edgeStyle=orthogonalEdgeStyle;rounded=0;orthogonalLoop=1;html=1;" parent="1" source="3" target="4" edge="1">
          <mxGeometry relative="1" as="geometry" />
        </mxCell>
        <mxCell id="e3" style="edgeStyle=orthogonalEdgeStyle;rounded=0;orthogonalLoop=1;html=1;" parent="1" source="4" target="5" edge="1">
          <mxGeometry relative="1" as="geometry" />
        </mxCell>
        <mxCell id="e4" style="edgeStyle=orthogonalEdgeStyle;rounded=0;orthogonalLoop=1;html=1;" parent="1" source="5" target="6" edge="1">
          <mxGeometry relative="1" as="geometry" />
        </mxCell>
        <mxCell id="e5" style="edgeStyle=orthogonalEdgeStyle;rounded=0;orthogonalLoop=1;html=1;" parent="1" source="6" target="7" edge="1">
          <mxGeometry relative="1" as="geometry" />
        </mxCell>
        <mxCell id="e6" style="edgeStyle=orthogonalEdgeStyle;rounded=0;orthogonalLoop=1;html=1;" parent="1" source="7" target="8" edge="1">
          <mxGeometry relative="1" as="geometry" />
        </mxCell>
        <mxCell id="e7" style="edgeStyle=orthogonalEdgeStyle;rounded=0;orthogonalLoop=1;html=1;" parent="1" source="8" target="9" edge="1">
          <mxGeometry relative="1" as="geometry" />
        </mxCell>
        <mxCell id="e8" style="edgeStyle=elbowEdgeStyle;rounded=0;orthogonalLoop=1;html=1;" parent="1" source="9" target="10" edge="1">
          <mxGeometry relative="1" as="geometry" />
        </mxCell>
        <mxCell id="e9" value="Так" style="edgeStyle=orthogonalEdgeStyle;endArrow=block;html=1;" parent="1" source="10" target="11" edge="1">
          <mxGeometry relative="1" as="geometry" />
        </mxCell>
        <mxCell id="e10" value="Ні" style="edgeStyle=orthogonalEdgeStyle;endArrow=block;html=1;" parent="1" source="10" target="12" edge="1">
          <mxGeometry relative="1" as="geometry">
            <mxPoint x="330" y="900" as="targetPoint" />
          </mxGeometry>
        </mxCell>
        <mxCell id="e11" style="edgeStyle=orthogonalEdgeStyle;rounded=0;orthogonalLoop=1;html=1;" parent="1" source="11" target="12" edge="1">
          <mxGeometry relative="1" as="geometry" />
        </mxCell>
        <mxCell id="e12" style="edgeStyle=orthogonalEdgeStyle;rounded=0;orthogonalLoop=1;html=1;" parent="1" source="12" target="3" edge="1">
          <mxGeometry relative="1" as="geometry" />
        </mxCell>
      </root>
    </mxGraphModel>
  </diagram>
</mxfile>
